<svg width="15" height="15" viewBox="0 0 15 15" fill="none" xmlns="http://www.w3.org/2000/svg">
<g clip-path="url(#clip0)">
<path d="M7.50305 3.64893C5.37617 3.64893 3.6543 5.37268 3.6543 7.49768C3.6543 9.62455 5.37805 11.3464 7.50305 11.3464C9.62992 11.3464 11.3518 9.62268 11.3518 7.49768C11.3518 5.3708 9.62805 3.64893 7.50305 3.64893ZM7.50305 9.9958C6.12242 9.9958 5.00492 8.87768 5.00492 7.49768C5.00492 6.11768 6.12305 4.99955 7.50305 4.99955C8.88305 4.99955 10.0012 6.11768 10.0012 7.49768C10.0018 8.87768 8.88367 9.9958 7.50305 9.9958Z" fill="white"/>
<path d="M10.5926 0.0476049C9.21264 -0.0167701 5.79452 -0.0136451 4.41327 0.0476049C3.19952 0.10448 2.12889 0.397605 1.26577 1.26073C-0.176733 2.70323 0.00764204 4.64698 0.00764204 7.49761C0.00764204 10.4151 -0.154858 12.3139 1.26577 13.7345C2.71389 15.182 4.68577 14.9926 7.50264 14.9926C10.3926 14.9926 11.3901 14.9945 12.412 14.5989C13.8014 14.0595 14.8501 12.8176 14.9526 10.587C15.0176 9.20636 15.0139 5.78886 14.9526 4.40761C14.8289 1.77448 13.4158 0.177605 10.5926 0.0476049ZM12.777 12.7801C11.8314 13.7257 10.5195 13.6414 7.48452 13.6414C4.35952 13.6414 3.10639 13.6876 2.19202 12.7707C1.13889 11.7226 1.32952 10.0395 1.32952 7.48761C1.32952 4.03448 0.975142 1.5476 4.44077 1.3701C5.23702 1.34198 5.47139 1.33261 7.47577 1.33261L7.50389 1.35135C10.8345 1.35135 13.4476 1.0026 13.6045 4.46761C13.6401 5.25823 13.6483 5.49573 13.6483 7.49698C13.6476 10.5857 13.7064 11.8464 12.777 12.7801Z" fill="white"/>
<path d="M11.5039 4.39641C12.0006 4.39641 12.4032 3.99374 12.4032 3.49703C12.4032 3.00032 12.0006 2.59766 11.5039 2.59766C11.0072 2.59766 10.6045 3.00032 10.6045 3.49703C10.6045 3.99374 11.0072 4.39641 11.5039 4.39641Z" fill="white"/>
</g>
<defs>
<clipPath id="clip0">
<rect width="15" height="15" fill="white"/>
</clipPath>
</defs>
</svg>
