<svg width="766" height="122" viewBox="0 0 766 122" fill="none" xmlns="http://www.w3.org/2000/svg">
<line x1="17.3872" y1="6.71045" x2="745.715" y2="6.71051" stroke="#386AA4" stroke-width="3"/>
<circle cx="24.6318" cy="7.24464" r="7.24464" fill="#386AA4"/>
<circle cx="143.927" cy="7.24464" r="7.24464" fill="#386AA4"/>
<circle cx="741.369" cy="7.24464" r="7.24464" fill="#386AA4"/>
<circle cx="622.073" cy="7.24464" r="7.24464" fill="#386AA4"/>
<circle cx="502.295" cy="7.24464" r="7.24464" fill="#386AA4"/>
<circle cx="383" cy="7.24464" r="7.24464" fill="#386AA4"/>
<circle cx="263.705" cy="7.24464" r="7.24464" fill="#386AA4"/>
<g clip-path="url(#clip0)">
<path d="M136.243 46.3213C129.472 46.3213 124.168 49.2147 124.168 52.9073C124.168 56.5999 129.472 59.4933 136.243 59.4933C143.013 59.4933 148.317 56.5999 148.317 52.9073C148.317 49.2147 143.013 46.3213 136.243 46.3213ZM136.243 57.298C130.421 57.298 126.364 54.9841 126.364 52.9073C126.364 50.8305 130.421 48.5167 136.243 48.5167C142.065 48.5167 146.122 50.8305 146.122 52.9073C146.122 54.9841 142.065 57.298 136.243 57.298Z" fill="#386AA4"/>
<path d="M136.243 49.6147C132.419 49.6147 128.559 50.6334 128.559 52.9078C128.559 55.1822 132.418 56.2008 136.243 56.2008C140.067 56.2008 143.927 55.1821 143.927 52.9078C143.927 50.6333 140.067 49.6147 136.243 49.6147ZM136.243 54.0054C133.21 54.0054 131.37 53.3138 130.854 52.9078C131.37 52.5017 133.209 51.8101 136.243 51.8101C139.277 51.8101 141.115 52.5017 141.631 52.9078C141.115 53.3138 139.276 54.0054 136.243 54.0054Z" fill="#386AA4"/>
<path d="M164.782 60.5911H152.708V52.9073C152.708 47.3674 145.475 43.0283 136.243 43.0283C127.01 43.0283 119.778 47.3675 119.778 52.9074V72.6656C119.778 78.2056 127.01 82.5446 136.243 82.5446H164.782C166.598 82.5446 168.075 81.0671 168.075 79.2516V63.8841C168.075 62.0686 166.598 60.5911 164.782 60.5911ZM165.88 79.2515C165.88 79.8574 165.387 80.3492 164.782 80.3492H163.685V75.9585C163.685 75.3515 163.193 74.8609 162.587 74.8609C161.981 74.8609 161.49 75.3515 161.49 75.9585V80.3492H159.294V78.1538C159.294 77.5468 158.802 77.0561 158.196 77.0561C157.591 77.0561 157.099 77.5468 157.099 78.1538V80.3492H154.903V75.9585C154.903 75.3515 154.412 74.8609 153.806 74.8609C153.2 74.8609 152.708 75.3515 152.708 75.9585V80.3492H150.513V78.1538C150.513 77.5468 150.021 77.0561 149.415 77.0561C148.809 77.0561 148.318 77.5468 148.318 78.1538V80.3492H146.122V75.9585C146.122 75.3515 145.63 74.8609 145.025 74.8609C144.419 74.8609 143.927 75.3515 143.927 75.9585V80.3492H141.731V78.1538C141.731 77.5468 141.24 77.0561 140.634 77.0561C140.028 77.0561 139.536 77.5468 139.536 78.1538V80.3492H137.341V75.9585C137.341 75.3515 136.849 74.8609 136.243 74.8609C135.637 74.8609 135.145 75.3515 135.145 75.9585V80.3185C134.397 80.2856 133.665 80.2197 132.95 80.1253V77.0562C132.95 76.4492 132.458 75.9586 131.852 75.9586C131.246 75.9586 130.755 76.4492 130.755 77.0562V79.7356C129.986 79.5578 129.255 79.3383 128.559 79.0924V73.7631C128.559 73.1561 128.068 72.6655 127.462 72.6655C126.856 72.6655 126.364 73.1561 126.364 73.7631V78.1461C125.526 77.7082 124.792 77.2153 124.169 76.6818V73.7631C124.169 73.1561 123.677 72.6655 123.071 72.6655C122.591 72.6655 122.195 72.9773 122.046 73.4053C122 73.1617 121.973 72.9147 121.973 72.6655V52.9074C121.973 48.7429 128.508 45.2237 136.243 45.2237C143.979 45.2237 150.513 48.7428 150.513 52.9074C150.513 57.072 143.979 60.5912 136.243 60.5912C132.271 60.5912 128.569 59.7086 125.821 58.105C125.295 57.802 124.624 57.9777 124.319 58.5002C124.014 59.0248 124.191 59.6967 124.714 60.0018C127.794 61.7985 131.888 62.7865 136.243 62.7865H164.782C165.387 62.7865 165.88 63.2782 165.88 63.8841V79.2515H165.88ZM150.513 57.8887V60.5912H146.699C148.234 59.8436 149.522 58.9271 150.513 57.8887Z" fill="#386AA4"/>
</g>
<g clip-path="url(#clip1)">
<path d="M249.031 45.1811C248.789 45.1811 248.547 45.0888 248.363 44.9042L246.629 43.1668C246.261 42.798 246.261 42.2008 246.63 41.8328C246.999 41.4649 247.596 41.4652 247.964 41.834L249.698 43.5714C250.066 43.9401 250.066 44.5373 249.697 44.9054C249.513 45.0893 249.272 45.1811 249.031 45.1811Z" fill="#386AA4"/>
<path d="M280.114 76.3213C279.872 76.3213 279.63 76.2289 279.446 76.0443L277.712 74.3069C277.344 73.9382 277.344 73.341 277.713 72.9729C278.082 72.605 278.679 72.6054 279.047 72.9741L280.781 74.7115C281.149 75.0803 281.149 75.6775 280.78 76.0455C280.596 76.2294 280.355 76.3213 280.114 76.3213Z" fill="#386AA4"/>
<path d="M278.379 45.1811C278.138 45.1811 277.897 45.0892 277.713 44.9055C277.344 44.5374 277.344 43.9402 277.712 43.5714L279.446 41.8341C279.814 41.4653 280.411 41.4647 280.78 41.8328C281.149 42.2009 281.149 42.7981 280.781 43.1669L279.047 44.9042C278.863 45.0888 278.621 45.1811 278.379 45.1811Z" fill="#386AA4"/>
<path d="M247.296 76.3213C247.055 76.3213 246.814 76.2294 246.63 76.0456C246.261 75.6775 246.261 75.0803 246.629 74.7116L248.363 72.9742C248.731 72.6054 249.328 72.6049 249.697 72.973C250.066 73.341 250.066 73.9383 249.698 74.307L247.964 76.0444C247.78 76.2289 247.538 76.3213 247.296 76.3213Z" fill="#386AA4"/>
<path d="M286.911 59.8827H284.458C283.937 59.8827 283.515 59.4604 283.515 58.9394C283.515 58.4184 283.937 57.9961 284.458 57.9961H286.911C287.431 57.9961 287.854 58.4184 287.854 58.9394C287.854 59.4604 287.431 59.8827 286.911 59.8827Z" fill="#386AA4"/>
<path d="M242.952 59.8827H240.499C239.979 59.8827 239.556 59.4604 239.556 58.9394C239.556 58.4184 239.979 57.9961 240.499 57.9961H242.952C243.473 57.9961 243.895 58.4184 243.895 58.9394C243.895 59.4604 243.473 59.8827 242.952 59.8827Z" fill="#386AA4"/>
<path d="M267.881 59.968C269.282 58.7808 270.172 57.0091 270.172 55.0334C270.172 51.4673 267.271 48.5659 263.705 48.5659C260.139 48.5659 257.237 51.4672 257.237 55.0334C257.237 57.0091 258.128 58.7808 259.529 59.968C257.193 60.8069 255.519 63.0437 255.519 65.6643V68.3693C255.519 68.8903 255.941 69.3126 256.462 69.3126H270.948C271.469 69.3126 271.891 68.8903 271.891 68.3693V65.6643C271.891 63.0437 270.216 60.8069 267.881 59.968ZM259.124 55.0334C259.124 52.5075 261.179 50.4525 263.705 50.4525C266.231 50.4525 268.286 52.5075 268.286 55.0334C268.286 57.5593 266.231 59.6141 263.705 59.6141C261.179 59.6141 259.124 57.5592 259.124 55.0334ZM270.004 67.4259H257.405V65.6642C257.405 63.3685 259.273 61.5007 261.569 61.5007H265.841C268.137 61.5007 270.005 63.3685 270.005 65.6642V67.4259H270.004Z" fill="#386AA4"/>
<path d="M280.547 59.8833C280.153 59.8833 279.792 59.6291 279.66 59.2577C279.53 58.8924 279.64 58.4722 279.937 58.221C280.246 57.959 280.7 57.9264 281.045 58.1395C281.375 58.344 281.549 58.7437 281.472 59.1249C281.385 59.5605 280.991 59.8833 280.547 59.8833Z" fill="#386AA4"/>
<path d="M280.374 62.2543C279.865 62.1397 279.361 62.4588 279.247 62.967C277.987 68.5511 273.556 72.7657 267.089 74.5302C266.678 74.6422 266.394 75.0149 266.394 75.4403V77.8443H261.016V75.4403C261.016 75.0149 260.732 74.6422 260.321 74.5302C252.477 72.3901 247.794 66.8049 247.794 59.5898C247.794 50.8212 254.932 43.6875 263.705 43.6875C270.749 43.6875 276.865 48.2066 278.923 54.9328C279.076 55.4311 279.604 55.7112 280.101 55.5589C280.599 55.4065 280.88 54.8791 280.727 54.3809C279.636 50.8151 277.384 47.6114 274.387 45.36C271.287 43.0315 267.593 41.8008 263.705 41.8008C253.891 41.8008 245.907 49.7808 245.907 59.5897C245.907 63.4668 247.153 67.0551 249.511 69.9668C251.806 72.8018 255.121 74.9302 259.13 76.1498V77.8443H259.117C258.597 77.8443 258.174 78.2666 258.174 78.7876C258.174 79.3086 258.597 79.7309 259.117 79.7309H259.13V83.0728C259.13 83.5938 259.552 84.0161 260.073 84.0161H267.337C267.858 84.0161 268.28 83.5938 268.28 83.0728V79.7309H268.292C268.813 79.7309 269.236 79.3086 269.236 78.7876C269.236 78.2666 268.813 77.8443 268.292 77.8443H268.28V76.1498C275.066 74.0855 279.716 69.464 281.087 63.382C281.202 62.8738 280.883 62.369 280.374 62.2543ZM266.394 82.1296H261.016V79.731H266.394V82.1296Z" fill="#386AA4"/>
</g>
<g clip-path="url(#clip2)">
<path d="M361.115 74.4832C361.115 74.7572 361.264 75.0107 361.505 75.1435L382.635 86.8406C382.748 86.9032 382.874 86.9349 383 86.9349C383.126 86.9349 383.252 86.9032 383.365 86.8406L404.496 75.1435C404.736 75.0107 404.885 74.7572 404.885 74.4832C404.885 74.2093 404.736 73.9557 404.496 73.8229L395.123 68.6347L404.496 63.4465C404.736 63.3136 404.885 63.0601 404.885 62.7861C404.885 62.5122 404.736 62.2594 404.496 62.1258L395.124 56.9376L404.496 51.7494C404.736 51.6166 404.885 51.363 404.885 51.0891C404.885 50.8151 404.736 50.5615 404.496 50.4287L383.365 38.7316C383.138 38.6064 382.861 38.6064 382.634 38.7316L361.504 50.4287C361.264 50.5615 361.115 50.8151 361.115 51.0891C361.115 51.363 361.264 51.6166 361.505 51.7494L370.877 56.9376L361.505 62.1258C361.264 62.2594 361.115 62.5122 361.115 62.7861C361.115 63.0601 361.264 63.3136 361.505 63.4465L370.877 68.6347L361.505 73.8229C361.264 73.9557 361.115 74.2093 361.115 74.4832ZM381.442 74.4832L372.431 79.4669L368.71 77.4075L377.718 72.4223L381.442 74.4832ZM383 85.3177L379.271 83.253L398.845 72.42L402.573 74.4832L383 85.3177ZM397.286 71.5567L377.711 82.3912L373.989 80.331L383.365 75.1443L393.565 69.498L397.286 71.5567ZM372.431 46.1053L376.156 48.1663L372.433 50.2257L368.709 48.1648L372.431 46.1053ZM377.711 43.1811L381.437 45.2428L377.715 47.3022L373.99 45.2413L377.711 43.1811ZM392.006 45.2398L388.277 47.3037L384.554 45.2435L388.283 43.1796L392.006 45.2398ZM397.286 48.1625L393.558 50.2257L389.835 48.1663L393.564 46.1031L397.286 48.1625ZM388.277 53.1485L384.554 51.0891L388.277 49.0289L391.999 51.0891L388.277 53.1485ZM393.557 51.9524L397.285 54.0156L393.564 56.075L389.835 54.0118L393.557 51.9524ZM386.718 54.0118L382.996 56.072L379.272 54.0118L382.996 51.9516L386.718 54.0118ZM386.717 48.1663L382.996 50.2257L379.272 48.1663L382.996 46.1061L386.717 48.1663ZM377.715 49.0289L381.436 51.0891L377.714 53.1485L373.992 51.0891L377.715 49.0289ZM376.155 54.0118L372.43 56.0728L368.709 54.0133L372.433 51.9524L376.155 54.0118ZM377.714 54.8744L381.437 56.9346L377.711 58.9963L373.989 56.9353L377.714 54.8744ZM382.996 57.7979L386.724 59.8619L383 61.9236L379.271 59.8588L382.996 57.7979ZM388.283 58.9985L384.554 56.9346L388.277 54.8744L392.006 56.9383L388.283 58.9985ZM398.844 53.1523L395.116 51.0891L398.844 49.0258L402.572 51.0891L398.844 53.1523ZM383 40.2545L386.725 42.3162L382.996 44.3802L379.27 42.3193L383 40.2545ZM367.151 49.0281L370.875 51.0891L367.151 53.15L363.427 51.0891L367.151 49.0281ZM372.435 57.8002L382.635 63.4465C382.748 63.5091 382.874 63.5408 383 63.5408C383.126 63.5408 383.252 63.5091 383.365 63.4465L393.565 57.8002L402.573 62.7861L383 73.6206L363.427 62.7861L372.435 57.8002ZM372.435 69.498L376.159 71.5589L367.151 76.5442L363.427 74.4832L372.435 69.498Z" fill="#386AA4"/>
</g>
<g clip-path="url(#clip3)">
<path d="M489.416 71.4336C486.753 71.4336 484.586 73.5997 484.586 76.2634C484.586 78.927 486.753 81.0931 489.416 81.0931C492.08 81.0931 494.246 78.927 494.246 76.2634C494.246 73.5997 492.08 71.4336 489.416 71.4336ZM489.416 79.4832C487.64 79.4832 486.196 78.039 486.196 76.2634C486.196 74.4876 487.64 73.0435 489.416 73.0435C491.192 73.0435 492.636 74.4877 492.636 76.2634C492.636 78.039 491.192 79.4832 489.416 79.4832Z" fill="#386AA4"/>
<path d="M516.784 71.4336C514.121 71.4336 511.955 73.5997 511.955 76.2634C511.955 78.927 514.121 81.0931 516.784 81.0931C519.448 81.0931 521.614 78.927 521.614 76.2634C521.614 73.5997 519.448 71.4336 516.784 71.4336ZM516.784 79.4832C515.009 79.4832 513.565 78.039 513.565 76.2634C513.565 74.4876 515.009 73.0435 516.784 73.0435C518.56 73.0435 520.004 74.4877 520.004 76.2634C520.004 78.039 518.56 79.4832 516.784 79.4832Z" fill="#386AA4"/>
<path d="M526.316 66.9734L519.071 55.704C518.923 55.4737 518.668 55.3345 518.394 55.3345H509.54C509.095 55.3345 508.735 55.6951 508.735 56.1394V76.2634C508.735 76.7085 509.095 77.0683 509.54 77.0683H512.76V75.4583H510.345V56.9444H517.955L524.834 67.6455V75.4585H520.809V77.0684H525.639C526.084 77.0684 526.444 76.7086 526.444 76.2635V67.4089C526.444 67.2551 526.4 67.103 526.316 66.9734Z" fill="#386AA4"/>
<path d="M513.565 65.7988V60.1642H520.005V58.5542H512.76C512.315 58.5542 511.955 58.9148 511.955 59.3591V66.6038C511.955 67.0489 512.315 67.4087 512.76 67.4087H524.834V65.7988H513.565V65.7988Z" fill="#386AA4"/>
<path d="M509.54 49.6997H478.951C478.507 49.6997 478.146 50.0603 478.146 50.5046V76.2634C478.146 76.7085 478.507 77.0683 478.951 77.0683H485.391V75.4584H479.756V51.3096H508.735V75.4584H493.441V77.0683H509.54C509.985 77.0683 510.345 76.7085 510.345 76.2634V50.5046C510.345 50.0603 509.985 49.6997 509.54 49.6997Z" fill="#386AA4"/>
<path d="M483.781 72.2383H478.952V73.8482H483.781V72.2383Z" fill="#386AA4"/>
<path d="M508.735 72.2383H495.051V73.8482H508.735V72.2383Z" fill="#386AA4"/>
<path d="M525.639 72.2383H522.419V73.8482H525.639V72.2383Z" fill="#386AA4"/>
<path d="M509.54 52.9194H481.366V54.5294H509.54V52.9194Z" fill="#386AA4"/>
<path d="M490.221 75.4585H488.611V77.0684H490.221V75.4585Z" fill="#386AA4"/>
<path d="M517.589 75.4585H515.979V77.0684H517.589V75.4585Z" fill="#386AA4"/>
<path d="M492.636 46.48H481.366V48.0899H492.636V46.48Z" fill="#386AA4"/>
<path d="M479.756 46.48H478.146V48.0899H479.756V46.48Z" fill="#386AA4"/>
</g>
<g clip-path="url(#clip4)">
<path d="M632.381 38.6377H603.837C600.774 38.6417 598.291 41.1243 598.287 44.1878V72.6655C598.291 75.7291 600.774 78.2117 603.837 78.2157H612.559V76.6299H603.837C601.649 76.6273 599.875 74.8539 599.873 72.6655V59.2525H604.965C605.435 59.2181 605.788 58.8093 605.753 58.3394C605.747 58.2488 605.726 58.1598 605.691 58.0758C604.986 56.4722 605.715 54.601 607.319 53.8964C608.922 53.1917 610.793 53.9204 611.498 55.524C611.855 56.3371 611.855 57.2627 611.498 58.0758C611.302 58.4855 611.476 58.9764 611.885 59.1723C611.991 59.2229 612.107 59.2503 612.224 59.2526H617.316V64.0098C617.054 63.9652 616.789 63.9432 616.523 63.944C613.896 63.9431 611.765 66.0723 611.764 68.6996C611.764 70.5925 612.885 72.3056 614.62 73.0621L615.255 71.6095C613.648 70.9108 612.913 69.0424 613.611 67.4362C614.115 66.2773 615.259 65.5284 616.523 65.5297C616.96 65.5296 617.392 65.6209 617.792 65.7977C618.193 65.9729 618.661 65.7895 618.836 65.3882C618.879 65.2883 618.902 65.1805 618.902 65.0715V59.2525H622.934C622.889 59.5143 622.866 59.7796 622.866 60.0453C622.871 62.3044 624.46 64.2505 626.672 64.7074L626.989 63.1542C625.514 62.849 624.455 61.5515 624.452 60.0453C624.452 59.6084 624.543 59.1762 624.72 58.7767C624.895 58.3754 624.712 57.908 624.31 57.7329C624.211 57.6893 624.103 57.6668 623.994 57.6667H618.902V53.6349C619.164 53.68 619.429 53.7026 619.695 53.7023C622.322 53.7023 624.452 51.5725 624.452 48.9451C624.452 46.3177 622.322 44.1878 619.695 44.1878C619.429 44.1875 619.164 44.2101 618.902 44.2552V40.2234H632.381C634.569 40.226 636.343 41.9995 636.345 44.1878V57.6667H631.253C630.815 57.6669 630.461 58.0221 630.461 58.46C630.461 58.569 630.483 58.6768 630.527 58.7767C630.704 59.1762 630.795 59.6084 630.795 60.0453H632.381C632.381 59.7796 632.358 59.5143 632.313 59.2525H637.138C637.576 59.2525 637.931 58.8974 637.931 58.4596V44.1878C637.927 41.1243 635.444 38.6417 632.381 38.6377ZM619.695 45.7736C621.446 45.7736 622.866 47.1935 622.866 48.9451C622.866 50.6966 621.446 52.1166 619.695 52.1166C619.258 52.1167 618.826 52.0254 618.426 51.8486C618.025 51.6735 617.557 51.8568 617.382 52.2581C617.339 52.358 617.316 52.4658 617.316 52.5749V57.6009H613.29C613.33 57.3606 613.35 57.1174 613.352 56.8738C613.352 56.8596 613.352 56.8469 613.352 56.8326C613.352 56.8183 613.352 56.8159 613.352 56.808C613.352 54.1806 611.222 52.0508 608.594 52.0508C605.967 52.0508 603.837 54.1806 603.837 56.808C603.837 56.8159 603.837 56.8247 603.837 56.8326C603.837 56.8405 603.837 56.8596 603.837 56.8738C603.839 57.1174 603.859 57.3606 603.899 57.6009H599.873V44.1878C599.875 41.9995 601.649 40.226 603.837 40.2234H617.316V45.3153C617.316 45.7532 617.672 46.108 618.109 46.1078C618.218 46.1077 618.326 46.0852 618.426 46.0416C618.826 45.8648 619.258 45.7735 619.695 45.7736Z" fill="#386AA4"/>
<path d="M644.164 72.7171L637.498 68.1272L634.938 61.287C634.785 60.8766 634.329 60.6678 633.918 60.8205C633.903 60.826 633.889 60.8319 633.875 60.8383L628.721 63.1178C628.335 63.2883 628.15 63.7319 628.301 64.1263C628.386 64.3483 628.466 64.5164 628.551 64.6908C628.636 64.8653 628.715 65.0286 628.81 65.2863C629.426 66.9308 628.597 68.7637 626.956 69.3878C625.315 70.0014 623.488 69.169 622.874 67.5283C622.72 67.1168 622.654 66.6779 622.678 66.2393C622.701 65.8021 622.365 65.4289 621.928 65.4059C621.819 65.4002 621.709 65.4172 621.606 65.456L616.097 67.5309C615.688 67.685 615.481 68.1411 615.634 68.5506L617.612 73.8335C617.35 73.8813 617.092 73.9523 616.843 74.046C614.375 74.9654 613.121 77.7109 614.04 80.1783C614.96 82.6456 617.705 83.9003 620.172 82.9809C620.426 82.8862 620.672 82.7701 620.906 82.6336L622.324 86.4204C622.478 86.8305 622.934 87.0383 623.345 86.8847C623.345 86.8845 623.345 86.8843 623.346 86.8842L631.202 83.9244C631.695 84.9851 632.603 85.7959 633.713 86.1667L634.214 84.6602C633.56 84.44 633.017 83.9758 632.698 83.3646L635.088 82.4647C635.874 84.6734 637.965 86.1475 640.31 86.1445V84.5587C638.126 84.5453 636.359 82.7782 636.345 80.5943C636.345 80.384 636.262 80.1824 636.113 80.0338L633.352 77.273C632.943 76.8601 632.897 76.2101 633.243 75.7435C633.445 75.4709 633.757 75.301 634.096 75.2789C634.435 75.2504 634.769 75.3752 635.006 75.619L640.542 81.1549L641.663 80.0338L640.025 78.3957C640.428 77.1888 640.404 75.8797 639.954 74.689L638.468 70.7207L643.26 74.0198C643.895 74.4656 644.273 75.1928 644.274 75.9687V86.2103H645.86V75.9687C645.859 74.673 645.226 73.4594 644.164 72.7171ZM638.469 75.2448C638.688 75.827 638.768 76.4523 638.701 77.0708L636.127 74.4979C635.065 73.4084 633.32 73.3865 632.231 74.4488C631.141 75.5111 631.12 77.2554 632.182 78.3449C632.198 78.3615 632.214 78.3779 632.231 78.3941L634.739 80.902L623.534 85.1224L622.023 81.0843C621.929 80.8334 621.714 80.6471 621.453 80.5888C621.396 80.5763 621.338 80.5699 621.281 80.5698C621.073 80.5696 620.874 80.6507 620.726 80.7957C619.452 81.9986 617.445 81.9416 616.242 80.6684C615.039 79.3952 615.096 77.3878 616.369 76.185C616.669 75.902 617.021 75.6802 617.405 75.5317C617.657 75.4382 617.921 75.3785 618.189 75.3541C618.354 75.3339 618.52 75.3284 618.686 75.3375C619.124 75.3604 619.497 75.0245 619.52 74.5872C619.525 74.4785 619.509 74.3698 619.47 74.2679L617.399 68.7384L621.175 67.3167C621.671 69.897 624.164 71.5869 626.744 71.0914C627.008 71.0408 627.267 70.9679 627.518 70.8736C629.977 69.9408 631.219 67.1967 630.299 64.7336C630.226 64.5385 630.16 64.3839 630.096 64.2459L633.744 62.6309L638.469 75.2448Z" fill="#386AA4"/>
</g>
<g clip-path="url(#clip5)">
<path d="M728.972 83.7155H754.731C755.175 83.7155 755.536 83.355 755.536 82.9105V66.8113C755.536 66.3668 755.175 66.0063 754.731 66.0063H728.972C728.527 66.0063 728.167 66.3668 728.167 66.8113V82.9105C728.167 83.355 728.527 83.7155 728.972 83.7155ZM753.926 82.1055H742.656V67.6163H753.926V82.1055ZM729.777 67.6163H741.046V82.1055H729.777V67.6163Z" fill="#386AA4"/>
<path d="M737.827 73.251H739.437V76.4708H737.827V73.251Z" fill="#386AA4"/>
<path d="M744.266 73.251H745.876V76.4708H744.266V73.251Z" fill="#386AA4"/>
<path d="M765.195 59.5668H763.565C764.097 58.8743 764.387 58.0257 764.39 57.1519V55.542C764.388 53.3201 762.587 51.52 760.366 51.5172C759.921 51.5172 759.561 51.8776 759.561 52.3222V52.343C758.868 51.8104 758.019 51.5203 757.146 51.5172C756.701 51.5172 756.341 51.8776 756.341 52.3222V52.343C755.648 51.8104 754.8 51.5203 753.926 51.5172C753.481 51.5172 753.121 51.8776 753.121 52.3222V52.343C752.428 51.8104 751.58 51.5203 750.706 51.5172C750.261 51.5172 749.901 51.8776 749.901 52.3222V52.343C749.208 51.8104 748.36 51.5203 747.486 51.5172C747.042 51.5172 746.681 51.8776 746.681 52.3222V59.5668H742.656V51.5172C742.656 49.7391 741.215 48.2974 739.437 48.2974C737.658 48.2974 736.217 49.7391 736.217 51.5172V53.1271H737.827V51.5172C737.827 50.6281 738.547 49.9073 739.437 49.9073C740.326 49.9073 741.046 50.6281 741.046 51.5172V59.5668H724.947V57.7211C724.946 57.5701 725.007 57.4251 725.114 57.3186C725.524 56.911 725.754 56.356 725.752 55.7778V55.542C725.752 54.2084 724.671 53.1271 723.337 53.1271V51.5172H721.727V53.1271C720.394 53.1271 719.313 54.2084 719.313 55.542V55.7778C719.311 56.356 719.541 56.911 719.951 57.3186C720.058 57.4251 720.118 57.5701 720.118 57.7211V59.5668H718.508C718.063 59.5668 717.703 59.9272 717.703 60.3718V63.5916C717.703 64.0361 718.063 64.3966 718.508 64.3966H719.313V86.1305C719.313 86.575 719.673 86.9354 720.118 86.9354H763.585C764.03 86.9354 764.39 86.575 764.39 86.1305V64.3966H765.195C765.64 64.3966 766 64.0361 766 63.5916V60.3718C766 59.9272 765.64 59.5668 765.195 59.5668ZM761.17 53.2647C762.135 53.607 762.779 54.5189 762.78 55.542V57.1519C762.779 58.175 762.135 59.0869 761.17 59.4292V53.2647ZM757.951 53.2647C758.915 53.607 759.559 54.5189 759.561 55.542V57.1519C759.559 58.175 758.915 59.0869 757.951 59.4292V53.2647ZM754.731 53.2647C755.695 53.607 756.34 54.5189 756.341 55.542V57.1519C756.34 58.175 755.695 59.0869 754.731 59.4292V53.2647ZM751.511 53.2647C752.475 53.607 753.12 54.5189 753.121 55.542V57.1519C753.12 58.175 752.475 59.0869 751.511 59.4292V53.2647ZM748.291 53.2647C749.255 53.607 749.9 54.5189 749.901 55.542V57.1519C749.9 58.175 749.255 59.0869 748.291 59.4292V53.2647ZM721.089 56.1803C720.982 56.0738 720.922 55.9288 720.922 55.7778V55.542C720.922 55.0975 721.283 54.737 721.727 54.737H723.337C723.782 54.737 724.142 55.0975 724.142 55.542V55.7778C724.143 55.9288 724.083 56.0738 723.976 56.1803C723.565 56.5879 723.336 57.1429 723.337 57.7211V59.5668H721.727V57.7211C721.729 57.1429 721.499 56.5879 721.089 56.1803ZM762.78 85.3255H720.922V64.3966H762.78V85.3255ZM764.39 62.7866H719.313V61.1767H764.39V62.7866Z" fill="#386AA4"/>
<path d="M765.195 38.6377H718.508C718.063 38.6377 717.703 38.9981 717.703 39.4427V45.8823C717.703 46.3269 718.063 46.6873 718.508 46.6873H765.195C765.64 46.6873 766 46.3269 766 45.8823V39.4427C766 38.9981 765.64 38.6377 765.195 38.6377ZM719.313 40.2476H741.046V45.0774H719.313V40.2476ZM764.39 45.0774H742.656V40.2476H764.39V45.0774Z" fill="#386AA4"/>
<path d="M737.827 41.8574H739.437V43.4673H737.827V41.8574Z" fill="#386AA4"/>
<path d="M744.266 41.8574H745.876V43.4673H744.266V41.8574Z" fill="#386AA4"/>
</g>
<g clip-path="url(#clip6)">
<path d="M21.9304 75.4573C21.5623 75.825 21.5623 76.4224 21.9304 76.7908C22.2992 77.1589 22.8962 77.1589 23.2639 76.7908C23.6328 76.4224 23.6328 75.825 23.2639 75.4573C22.8962 75.0885 22.2992 75.0885 21.9304 75.4573Z" fill="#386AA4"/>
<path d="M46.1211 73.8189L38.9593 67.7291C38.9262 67.7011 38.8912 67.6753 38.8547 67.6521C36.9758 66.456 34.5633 66.7209 32.9881 68.2958L29.0833 72.2002C28.8128 72.4711 28.4093 72.551 28.0556 72.4051C23.6463 70.5811 20.0242 67.8352 17.2897 64.2444C15.2044 61.5062 14.4527 59.3304 14.3536 59.0238C14.3418 58.9582 14.323 58.893 14.2965 58.8292C14.1502 58.4755 14.2302 58.0727 14.5014 57.8023L18.4058 53.8968C19.9811 52.3215 20.2456 49.9091 19.0495 48.0302C19.04 48.0151 19.03 48.0004 19.0197 47.9856L13.8477 40.7985C12.2205 38.274 8.67605 37.8926 6.5488 40.0195L5.76689 40.8014C5.76652 40.8022 5.76578 40.8029 5.76504 40.8033L2.97343 43.5949C-0.355434 46.9241 -0.90005 51.9265 1.39891 58.0624C3.36807 63.3184 7.31009 69.0707 12.4987 74.2593C17.81 79.5705 23.7178 83.5855 29.1338 85.5646C34.4944 87.523 40.1967 87.7644 44.2327 83.7281L46.8655 81.0957C48.9831 78.9776 48.6135 75.4565 46.1211 73.8189ZM37.7905 69.2111L44.946 75.2958C44.9788 75.3238 45.0138 75.3496 45.0503 75.3728C46.5788 76.346 46.8102 78.4832 45.5312 79.7618L45.3359 79.9574L33.1314 70.8199L34.322 69.6297C35.2524 68.6989 36.6703 68.5305 37.7905 69.2111ZM12.2717 41.835C12.2813 41.8501 12.2912 41.8652 12.3015 41.8796L17.4713 49.0642C18.1737 50.1884 18.0112 51.6236 17.0719 52.5629L15.9182 53.717L7.66125 41.5749L7.88271 41.3534C9.16686 40.0692 11.3022 40.3121 12.2717 41.835ZM29.7808 83.7926C24.6177 81.9059 18.9537 78.0465 13.8326 72.9254C8.83007 67.9233 5.04171 62.4097 3.16504 57.4006C1.75633 53.6407 0.811178 48.4249 4.30733 44.9291L6.30339 42.9327L14.5603 55.0748L13.1678 56.468C12.3756 57.2588 12.1265 58.4291 12.5219 59.4711C12.8196 60.693 14.1896 63.2292 15.5718 65.0982C17.6058 67.8485 21.2976 71.6508 27.3345 74.1484C28.3953 74.5872 29.6051 74.3462 30.4172 73.5345L31.7839 72.1674L43.9884 81.305L42.8988 82.3942C39.1509 86.1423 33.6967 85.2234 29.7808 83.7926Z" fill="#386AA4"/>
<path d="M20.1603 73.2052C19.1639 72.3315 17.4405 70.8289 16.5329 69.8952C14.3073 67.608 11.9722 64.8355 10.5838 62.8325C10.2872 62.4043 9.69945 62.2974 9.27127 62.5944C8.8431 62.8911 8.73661 63.4788 9.03324 63.907C10.7843 66.4333 13.357 69.3362 15.1806 71.2103C16.1387 72.1963 17.8768 73.7122 18.9163 74.6235C19.3072 74.9662 19.9031 74.9286 20.2476 74.5362C20.591 74.1448 20.552 73.5486 20.1603 73.2052Z" fill="#386AA4"/>
</g>
<path d="M10.6237 109.822C10.6237 110.358 10.455 110.783 10.1177 111.098C9.78033 111.406 9.32933 111.604 8.76467 111.692V111.736C9.42467 111.824 9.927 112.03 10.2717 112.352C10.6163 112.675 10.7887 113.097 10.7887 113.617C10.7887 114.307 10.5247 114.868 9.99667 115.3C9.46867 115.733 8.67667 115.949 7.62067 115.949C7.19533 115.949 6.78833 115.916 6.39967 115.85C6.01833 115.792 5.66267 115.682 5.33267 115.52V114.618C5.67733 114.78 6.05133 114.908 6.45467 115.003C6.86533 115.091 7.25033 115.135 7.60967 115.135C8.31367 115.135 8.84533 115.003 9.20467 114.739C9.57133 114.475 9.75467 114.101 9.75467 113.617C9.75467 113.119 9.542 112.756 9.11667 112.528C8.69133 112.301 8.09733 112.187 7.33467 112.187H6.21267V111.362H7.27967C8.057 111.362 8.63633 111.234 9.01767 110.977C9.40633 110.713 9.60067 110.361 9.60067 109.921C9.60067 109.525 9.454 109.221 9.16067 109.008C8.86733 108.796 8.486 108.689 8.01667 108.689C7.52533 108.689 7.11467 108.752 6.78467 108.876C6.462 109.001 6.14667 109.162 5.83867 109.36L5.36567 108.689C5.67367 108.462 6.05133 108.271 6.49867 108.117C6.95333 107.956 7.463 107.875 8.02767 107.875C8.87833 107.875 9.52367 108.059 9.96367 108.425C10.4037 108.792 10.6237 109.258 10.6237 109.822ZM17.0575 111.428C17.0575 111.795 16.9475 112.081 16.7275 112.286C16.5075 112.492 16.2251 112.631 15.8805 112.704V112.748C16.2471 112.8 16.5661 112.932 16.8375 113.144C17.1088 113.35 17.2445 113.672 17.2445 114.112C17.2445 114.611 17.0575 115.025 16.6835 115.355C16.3168 115.678 15.7081 115.839 14.8575 115.839H12.3165V109.943H14.8465C15.2645 109.943 15.6385 109.991 15.9685 110.086C16.3058 110.174 16.5698 110.328 16.7605 110.548C16.9585 110.761 17.0575 111.054 17.0575 111.428ZM16.0785 111.549C16.0785 111.271 15.9758 111.069 15.7705 110.944C15.5725 110.812 15.2461 110.746 14.7915 110.746H13.2845V112.363H14.6155C15.5908 112.363 16.0785 112.092 16.0785 111.549ZM16.2435 114.112C16.2435 113.775 16.1151 113.533 15.8585 113.386C15.6018 113.24 15.2241 113.166 14.7255 113.166H13.2845V115.058H14.7475C15.2315 115.058 15.6018 114.989 15.8585 114.849C16.1151 114.703 16.2435 114.457 16.2435 114.112ZM23.7804 112.88C23.7804 113.856 23.531 114.611 23.0324 115.146C22.541 115.682 21.8737 115.949 21.0304 115.949C20.5097 115.949 20.044 115.832 19.6334 115.597C19.23 115.355 18.911 115.007 18.6764 114.552C18.4417 114.09 18.3244 113.533 18.3244 112.88C18.3244 111.905 18.57 111.153 19.0614 110.625C19.5527 110.097 20.22 109.833 21.0634 109.833C21.5987 109.833 22.068 109.954 22.4714 110.196C22.882 110.431 23.201 110.776 23.4284 111.23C23.663 111.678 23.7804 112.228 23.7804 112.88ZM19.3254 112.88C19.3254 113.577 19.461 114.131 19.7324 114.541C20.011 114.945 20.451 115.146 21.0524 115.146C21.6464 115.146 22.0827 114.945 22.3614 114.541C22.64 114.131 22.7794 113.577 22.7794 112.88C22.7794 112.184 22.64 111.637 22.3614 111.241C22.0827 110.845 21.6427 110.647 21.0414 110.647C20.44 110.647 20.0037 110.845 19.7324 111.241C19.461 111.637 19.3254 112.184 19.3254 112.88ZM26.2825 109.943V112.396H29.4835V109.943H30.4515V115.839H29.4835V113.21H26.2825V115.839H25.3145V109.943H26.2825ZM37.4444 112.88C37.4444 113.856 37.1951 114.611 36.6964 115.146C36.2051 115.682 35.5377 115.949 34.6944 115.949C34.1737 115.949 33.7081 115.832 33.2974 115.597C32.8941 115.355 32.5751 115.007 32.3404 114.552C32.1057 114.09 31.9884 113.533 31.9884 112.88C31.9884 111.905 32.2341 111.153 32.7254 110.625C33.2167 110.097 33.8841 109.833 34.7274 109.833C35.2627 109.833 35.7321 109.954 36.1354 110.196C36.5461 110.431 36.8651 110.776 37.0924 111.23C37.3271 111.678 37.4444 112.228 37.4444 112.88ZM32.9894 112.88C32.9894 113.577 33.1251 114.131 33.3964 114.541C33.6751 114.945 34.1151 115.146 34.7164 115.146C35.3104 115.146 35.7467 114.945 36.0254 114.541C36.3041 114.131 36.4434 113.577 36.4434 112.88C36.4434 112.184 36.3041 111.637 36.0254 111.241C35.7467 110.845 35.3067 110.647 34.7054 110.647C34.1041 110.647 33.6677 110.845 33.3964 111.241C33.1251 111.637 32.9894 112.184 32.9894 112.88ZM42.4656 109.943H43.5216L41.0026 112.781L43.7306 115.839H42.6086L39.9466 112.847V115.839H38.9786V109.943H39.9466V112.803L42.4656 109.943Z" fill="#4D5960"/>
<path d="M132.728 109.822C132.728 110.358 132.559 110.783 132.222 111.098C131.884 111.406 131.433 111.604 130.869 111.692V111.736C131.529 111.824 132.031 112.03 132.376 112.352C132.72 112.675 132.893 113.097 132.893 113.617C132.893 114.307 132.629 114.868 132.101 115.3C131.573 115.733 130.781 115.949 129.725 115.949C129.299 115.949 128.892 115.916 128.504 115.85C128.122 115.792 127.767 115.682 127.437 115.52V114.618C127.781 114.78 128.155 114.908 128.559 115.003C128.969 115.091 129.354 115.135 129.714 115.135C130.418 115.135 130.949 115.003 131.309 114.739C131.675 114.475 131.859 114.101 131.859 113.617C131.859 113.119 131.646 112.756 131.221 112.528C130.795 112.301 130.201 112.187 129.439 112.187H128.317V111.362H129.384C130.161 111.362 130.74 111.234 131.122 110.977C131.51 110.713 131.705 110.361 131.705 109.921C131.705 109.525 131.558 109.221 131.265 109.008C130.971 108.796 130.59 108.689 130.121 108.689C129.629 108.689 129.219 108.752 128.889 108.876C128.566 109.001 128.251 109.162 127.943 109.36L127.47 108.689C127.778 108.462 128.155 108.271 128.603 108.117C129.057 107.956 129.567 107.875 130.132 107.875C130.982 107.875 131.628 108.059 132.068 108.425C132.508 108.792 132.728 109.258 132.728 109.822ZM136.653 109.844C137.372 109.844 137.904 110.002 138.248 110.317C138.593 110.633 138.765 111.135 138.765 111.824V115.839H138.061L137.874 115.003H137.83C137.574 115.326 137.302 115.564 137.016 115.718C136.738 115.872 136.349 115.949 135.85 115.949C135.315 115.949 134.871 115.81 134.519 115.531C134.167 115.245 133.991 114.802 133.991 114.2C133.991 113.614 134.222 113.163 134.684 112.847C135.146 112.525 135.858 112.349 136.818 112.319L137.819 112.286V111.934C137.819 111.443 137.713 111.102 137.5 110.911C137.288 110.721 136.987 110.625 136.598 110.625C136.29 110.625 135.997 110.673 135.718 110.768C135.44 110.856 135.179 110.959 134.937 111.076L134.64 110.35C134.897 110.211 135.201 110.094 135.553 109.998C135.905 109.896 136.272 109.844 136.653 109.844ZM137.808 112.957L136.939 112.99C136.206 113.02 135.696 113.137 135.41 113.342C135.132 113.548 134.992 113.837 134.992 114.211C134.992 114.541 135.091 114.783 135.289 114.937C135.495 115.091 135.755 115.168 136.07 115.168C136.569 115.168 136.983 115.033 137.313 114.761C137.643 114.483 137.808 114.057 137.808 113.485V112.957ZM146.911 109.943V115.839H146.042V112.077C146.042 111.923 146.046 111.762 146.053 111.593C146.068 111.425 146.083 111.26 146.097 111.098H146.064L144.139 115.839H143.325L141.455 111.098H141.422C141.444 111.428 141.455 111.766 141.455 112.11V115.839H140.586V109.943H141.873L143.732 114.684L145.624 109.943H146.911ZM151.07 109.833C151.576 109.833 152.009 109.943 152.368 110.163C152.735 110.383 153.014 110.695 153.204 111.098C153.402 111.494 153.501 111.96 153.501 112.495V113.078H149.464C149.479 113.746 149.648 114.255 149.97 114.607C150.3 114.952 150.759 115.124 151.345 115.124C151.719 115.124 152.049 115.091 152.335 115.025C152.629 114.952 152.929 114.849 153.237 114.717V115.564C152.937 115.696 152.64 115.792 152.346 115.85C152.053 115.916 151.705 115.949 151.301 115.949C150.744 115.949 150.249 115.836 149.816 115.608C149.391 115.381 149.057 115.044 148.815 114.596C148.581 114.142 148.463 113.588 148.463 112.935C148.463 112.29 148.57 111.736 148.782 111.274C149.002 110.812 149.307 110.457 149.695 110.207C150.091 109.958 150.55 109.833 151.07 109.833ZM151.059 110.625C150.597 110.625 150.231 110.776 149.959 111.076C149.695 111.37 149.538 111.78 149.486 112.308H152.489C152.482 111.81 152.365 111.406 152.137 111.098C151.91 110.783 151.551 110.625 151.059 110.625ZM157.807 109.833C158.533 109.833 159.116 110.086 159.556 110.592C160.004 111.098 160.227 111.861 160.227 112.88C160.227 113.885 160.004 114.648 159.556 115.168C159.116 115.689 158.53 115.949 157.796 115.949C157.342 115.949 156.964 115.865 156.663 115.696C156.37 115.52 156.139 115.319 155.97 115.091H155.904C155.919 115.216 155.934 115.374 155.948 115.564C155.963 115.755 155.97 115.92 155.97 116.059V118.479H155.002V109.943H155.794L155.926 110.746H155.97C156.146 110.49 156.377 110.273 156.663 110.097C156.949 109.921 157.331 109.833 157.807 109.833ZM157.631 110.647C157.03 110.647 156.605 110.816 156.355 111.153C156.113 111.491 155.985 112.004 155.97 112.693V112.88C155.97 113.606 156.088 114.167 156.322 114.563C156.564 114.952 157.008 115.146 157.653 115.146C158.013 115.146 158.306 115.047 158.533 114.849C158.768 114.651 158.94 114.384 159.05 114.046C159.168 113.702 159.226 113.309 159.226 112.869C159.226 112.195 159.094 111.656 158.83 111.252C158.574 110.849 158.174 110.647 157.631 110.647Z" fill="#4D5960"/>
<path d="M245.645 115.839V107.985H251.541V115.839H250.562V108.854H246.635V115.839H245.645ZM256.364 109.833C257.09 109.833 257.673 110.086 258.113 110.592C258.56 111.098 258.784 111.861 258.784 112.88C258.784 113.885 258.56 114.648 258.113 115.168C257.673 115.689 257.086 115.949 256.353 115.949C255.898 115.949 255.521 115.865 255.22 115.696C254.927 115.52 254.696 115.319 254.527 115.091H254.461C254.476 115.216 254.49 115.374 254.505 115.564C254.52 115.755 254.527 115.92 254.527 116.059V118.479H253.559V109.943H254.351L254.483 110.746H254.527C254.703 110.49 254.934 110.273 255.22 110.097C255.506 109.921 255.887 109.833 256.364 109.833ZM256.188 110.647C255.587 110.647 255.161 110.816 254.912 111.153C254.67 111.491 254.542 112.004 254.527 112.693V112.88C254.527 113.606 254.644 114.167 254.879 114.563C255.121 114.952 255.565 115.146 256.21 115.146C256.569 115.146 256.863 115.047 257.09 114.849C257.325 114.651 257.497 114.384 257.607 114.046C257.724 113.702 257.783 113.309 257.783 112.869C257.783 112.195 257.651 111.656 257.387 111.252C257.13 110.849 256.731 110.647 256.188 110.647ZM265.453 112.88C265.453 113.856 265.203 114.611 264.705 115.146C264.213 115.682 263.546 115.949 262.703 115.949C262.182 115.949 261.716 115.832 261.306 115.597C260.902 115.355 260.583 115.007 260.349 114.552C260.114 114.09 259.997 113.533 259.997 112.88C259.997 111.905 260.242 111.153 260.734 110.625C261.225 110.097 261.892 109.833 262.736 109.833C263.271 109.833 263.74 109.954 264.144 110.196C264.554 110.431 264.873 110.776 265.101 111.23C265.335 111.678 265.453 112.228 265.453 112.88ZM260.998 112.88C260.998 113.577 261.133 114.131 261.405 114.541C261.683 114.945 262.123 115.146 262.725 115.146C263.319 115.146 263.755 114.945 264.034 114.541C264.312 114.131 264.452 113.577 264.452 112.88C264.452 112.184 264.312 111.637 264.034 111.241C263.755 110.845 263.315 110.647 262.714 110.647C262.112 110.647 261.676 110.845 261.405 111.241C261.133 111.637 260.998 112.184 260.998 112.88ZM269.264 109.833C269.77 109.833 270.203 109.943 270.562 110.163C270.929 110.383 271.207 110.695 271.398 111.098C271.596 111.494 271.695 111.96 271.695 112.495V113.078H267.658C267.673 113.746 267.841 114.255 268.164 114.607C268.494 114.952 268.952 115.124 269.539 115.124C269.913 115.124 270.243 115.091 270.529 115.025C270.822 114.952 271.123 114.849 271.431 114.717V115.564C271.13 115.696 270.833 115.792 270.54 115.85C270.247 115.916 269.898 115.949 269.495 115.949C268.938 115.949 268.443 115.836 268.01 115.608C267.585 115.381 267.251 115.044 267.009 114.596C266.774 114.142 266.657 113.588 266.657 112.935C266.657 112.29 266.763 111.736 266.976 111.274C267.196 110.812 267.5 110.457 267.889 110.207C268.285 109.958 268.743 109.833 269.264 109.833ZM269.253 110.625C268.791 110.625 268.424 110.776 268.153 111.076C267.889 111.37 267.731 111.78 267.68 112.308H270.683C270.676 111.81 270.558 111.406 270.331 111.098C270.104 110.783 269.744 110.625 269.253 110.625ZM276.683 109.943H277.739L275.22 112.781L277.948 115.839H276.826L274.164 112.847V115.839H273.196V109.943H274.164V112.803L276.683 109.943ZM283.088 110.757H281.163V115.839H280.206V110.757H278.303V109.943H283.088V110.757Z" fill="#4D5960"/>
<path d="M345.648 115.839V107.985H351.544V115.839H350.565V108.854H346.638V115.839H345.648ZM356.367 109.833C357.093 109.833 357.676 110.086 358.116 110.592C358.563 111.098 358.787 111.861 358.787 112.88C358.787 113.885 358.563 114.648 358.116 115.168C357.676 115.689 357.089 115.949 356.356 115.949C355.901 115.949 355.523 115.865 355.223 115.696C354.929 115.52 354.698 115.319 354.53 115.091H354.464C354.478 115.216 354.493 115.374 354.508 115.564C354.522 115.755 354.53 115.92 354.53 116.059V118.479H353.562V109.943H354.354L354.486 110.746H354.53C354.706 110.49 354.937 110.273 355.223 110.097C355.509 109.921 355.89 109.833 356.367 109.833ZM356.191 110.647C355.589 110.647 355.164 110.816 354.915 111.153C354.673 111.491 354.544 112.004 354.53 112.693V112.88C354.53 113.606 354.647 114.167 354.882 114.563C355.124 114.952 355.567 115.146 356.213 115.146C356.572 115.146 356.865 115.047 357.093 114.849C357.327 114.651 357.5 114.384 357.61 114.046C357.727 113.702 357.786 113.309 357.786 112.869C357.786 112.195 357.654 111.656 357.39 111.252C357.133 110.849 356.733 110.647 356.191 110.647ZM365.455 112.88C365.455 113.856 365.206 114.611 364.707 115.146C364.216 115.682 363.549 115.949 362.705 115.949C362.185 115.949 361.719 115.832 361.308 115.597C360.905 115.355 360.586 115.007 360.351 114.552C360.117 114.09 359.999 113.533 359.999 112.88C359.999 111.905 360.245 111.153 360.736 110.625C361.228 110.097 361.895 109.833 362.738 109.833C363.274 109.833 363.743 109.954 364.146 110.196C364.557 110.431 364.876 110.776 365.103 111.23C365.338 111.678 365.455 112.228 365.455 112.88ZM361 112.88C361 113.577 361.136 114.131 361.407 114.541C361.686 114.945 362.126 115.146 362.727 115.146C363.321 115.146 363.758 114.945 364.036 114.541C364.315 114.131 364.454 113.577 364.454 112.88C364.454 112.184 364.315 111.637 364.036 111.241C363.758 110.845 363.318 110.647 362.716 110.647C362.115 110.647 361.679 110.845 361.407 111.241C361.136 111.637 361 112.184 361 112.88ZM367.902 109.943V113.54C367.902 113.628 367.899 113.76 367.891 113.936C367.884 114.112 367.873 114.288 367.858 114.464C367.851 114.64 367.844 114.78 367.836 114.882L370.993 109.943H372.181V115.839H371.279V112.363C371.279 112.246 371.279 112.092 371.279 111.901C371.287 111.711 371.294 111.524 371.301 111.34C371.309 111.15 371.316 111.007 371.323 110.911L368.188 115.839H366.989V109.943H367.902ZM375.609 109.833C376.283 109.833 376.819 109.969 377.215 110.24C377.618 110.504 377.82 110.886 377.82 111.384C377.82 111.744 377.721 112.03 377.523 112.242C377.325 112.448 377.053 112.598 376.709 112.693V112.737C376.943 112.803 377.16 112.895 377.358 113.012C377.556 113.13 377.713 113.284 377.831 113.474C377.955 113.665 378.018 113.911 378.018 114.211C378.018 114.703 377.812 115.117 377.402 115.454C376.998 115.784 376.364 115.949 375.499 115.949C375.073 115.949 374.688 115.913 374.344 115.839C373.999 115.773 373.713 115.682 373.486 115.564V114.695C373.735 114.813 374.028 114.919 374.366 115.014C374.71 115.11 375.084 115.157 375.488 115.157C375.928 115.157 376.298 115.084 376.599 114.937C376.907 114.783 377.061 114.523 377.061 114.156C377.061 113.496 376.5 113.166 375.378 113.166H374.586V112.374H375.224C375.73 112.374 376.133 112.308 376.434 112.176C376.742 112.037 376.896 111.802 376.896 111.472C376.896 111.194 376.778 110.985 376.544 110.845C376.316 110.706 375.986 110.636 375.554 110.636C375.231 110.636 374.945 110.669 374.696 110.735C374.454 110.794 374.186 110.886 373.893 111.01L373.552 110.24C374.168 109.969 374.853 109.833 375.609 109.833ZM384.191 111.428C384.191 111.795 384.081 112.081 383.861 112.286C383.641 112.492 383.359 112.631 383.014 112.704V112.748C383.381 112.8 383.7 112.932 383.971 113.144C384.243 113.35 384.378 113.672 384.378 114.112C384.378 114.611 384.191 115.025 383.817 115.355C383.451 115.678 382.842 115.839 381.991 115.839H379.45V109.943H381.98C382.398 109.943 382.772 109.991 383.102 110.086C383.44 110.174 383.704 110.328 383.894 110.548C384.092 110.761 384.191 111.054 384.191 111.428ZM383.212 111.549C383.212 111.271 383.11 111.069 382.904 110.944C382.706 110.812 382.38 110.746 381.925 110.746H380.418V112.363H381.749C382.725 112.363 383.212 112.092 383.212 111.549ZM383.377 114.112C383.377 113.775 383.249 113.533 382.992 113.386C382.736 113.24 382.358 113.166 381.859 113.166H380.418V115.058H381.881C382.365 115.058 382.736 114.989 382.992 114.849C383.249 114.703 383.377 114.457 383.377 114.112ZM390.914 112.88C390.914 113.856 390.665 114.611 390.166 115.146C389.675 115.682 389.008 115.949 388.164 115.949C387.644 115.949 387.178 115.832 386.767 115.597C386.364 115.355 386.045 115.007 385.81 114.552C385.576 114.09 385.458 113.533 385.458 112.88C385.458 111.905 385.704 111.153 386.195 110.625C386.687 110.097 387.354 109.833 388.197 109.833C388.733 109.833 389.202 109.954 389.605 110.196C390.016 110.431 390.335 110.776 390.562 111.23C390.797 111.678 390.914 112.228 390.914 112.88ZM386.459 112.88C386.459 113.577 386.595 114.131 386.866 114.541C387.145 114.945 387.585 115.146 388.186 115.146C388.78 115.146 389.217 114.945 389.495 114.541C389.774 114.131 389.913 113.577 389.913 112.88C389.913 112.184 389.774 111.637 389.495 111.241C389.217 110.845 388.777 110.647 388.175 110.647C387.574 110.647 387.138 110.845 386.866 111.241C386.595 111.637 386.459 112.184 386.459 112.88ZM396.826 109.943V115.025H397.684V117.885H396.749V115.839H392.646V117.885H391.722V115.025H392.195C392.701 114.329 393.079 113.537 393.328 112.649C393.585 111.755 393.717 110.853 393.724 109.943H396.826ZM395.891 110.702H394.582C394.553 111.201 394.476 111.718 394.351 112.253C394.227 112.781 394.065 113.287 393.867 113.771C393.677 114.255 393.453 114.673 393.196 115.025H395.891V110.702ZM401.205 115.949C400.684 115.949 400.219 115.843 399.808 115.63C399.405 115.418 399.086 115.088 398.851 114.64C398.624 114.193 398.51 113.621 398.51 112.924C398.51 112.198 398.631 111.608 398.873 111.153C399.115 110.699 399.441 110.365 399.852 110.152C400.27 109.94 400.743 109.833 401.271 109.833C401.572 109.833 401.861 109.866 402.14 109.932C402.419 109.991 402.646 110.064 402.822 110.152L402.525 110.955C402.349 110.889 402.144 110.827 401.909 110.768C401.674 110.71 401.454 110.68 401.249 110.68C400.09 110.68 399.511 111.425 399.511 112.913C399.511 113.625 399.65 114.171 399.929 114.552C400.215 114.926 400.637 115.113 401.194 115.113C401.517 115.113 401.799 115.08 402.041 115.014C402.29 114.948 402.518 114.868 402.723 114.772V115.63C402.525 115.733 402.305 115.81 402.063 115.861C401.828 115.92 401.542 115.949 401.205 115.949ZM408.195 110.757H406.27V115.839H405.313V110.757H403.41V109.943H408.195V110.757ZM414.098 111.428C414.098 111.795 413.988 112.081 413.768 112.286C413.548 112.492 413.265 112.631 412.921 112.704V112.748C413.287 112.8 413.606 112.932 413.878 113.144C414.149 113.35 414.285 113.672 414.285 114.112C414.285 114.611 414.098 115.025 413.724 115.355C413.357 115.678 412.748 115.839 411.898 115.839H409.357V109.943H411.887C412.305 109.943 412.679 109.991 413.009 110.086C413.346 110.174 413.61 110.328 413.801 110.548C413.999 110.761 414.098 111.054 414.098 111.428ZM413.119 111.549C413.119 111.271 413.016 111.069 412.811 110.944C412.613 110.812 412.286 110.746 411.832 110.746H410.325V112.363H411.656C412.631 112.363 413.119 112.092 413.119 111.549ZM413.284 114.112C413.284 113.775 413.155 113.533 412.899 113.386C412.642 113.24 412.264 113.166 411.766 113.166H410.325V115.058H411.788C412.272 115.058 412.642 114.989 412.899 114.849C413.155 114.703 413.284 114.457 413.284 114.112ZM420.82 112.88C420.82 113.856 420.571 114.611 420.072 115.146C419.581 115.682 418.914 115.949 418.07 115.949C417.55 115.949 417.084 115.832 416.673 115.597C416.27 115.355 415.951 115.007 415.716 114.552C415.482 114.09 415.364 113.533 415.364 112.88C415.364 111.905 415.61 111.153 416.101 110.625C416.593 110.097 417.26 109.833 418.103 109.833C418.639 109.833 419.108 109.954 419.511 110.196C419.922 110.431 420.241 110.776 420.468 111.23C420.703 111.678 420.82 112.228 420.82 112.88ZM416.365 112.88C416.365 113.577 416.501 114.131 416.772 114.541C417.051 114.945 417.491 115.146 418.092 115.146C418.686 115.146 419.123 114.945 419.401 114.541C419.68 114.131 419.819 113.577 419.819 112.88C419.819 112.184 419.68 111.637 419.401 111.241C419.123 110.845 418.683 110.647 418.081 110.647C417.48 110.647 417.044 110.845 416.772 111.241C416.501 111.637 416.365 112.184 416.365 112.88Z" fill="#4D5960"/>
<path d="M484.016 107.985V114.959H485.017V117.907H484.071V115.839H478.67V117.907H477.724V114.959H478.329C478.593 114.505 478.842 113.995 479.077 113.43C479.319 112.866 479.532 112.275 479.715 111.659C479.898 111.036 480.049 110.413 480.166 109.789C480.283 109.166 480.357 108.565 480.386 107.985H484.016ZM483.037 108.876H481.255C481.226 109.302 481.152 109.782 481.035 110.317C480.925 110.853 480.782 111.403 480.606 111.967C480.437 112.525 480.247 113.064 480.034 113.584C479.829 114.105 479.609 114.563 479.374 114.959H483.037V108.876ZM491.324 112.88C491.324 113.856 491.075 114.611 490.576 115.146C490.085 115.682 489.418 115.949 488.574 115.949C488.054 115.949 487.588 115.832 487.177 115.597C486.774 115.355 486.455 115.007 486.22 114.552C485.986 114.09 485.868 113.533 485.868 112.88C485.868 111.905 486.114 111.153 486.605 110.625C487.097 110.097 487.764 109.833 488.607 109.833C489.143 109.833 489.612 109.954 490.015 110.196C490.426 110.431 490.745 110.776 490.972 111.23C491.207 111.678 491.324 112.228 491.324 112.88ZM486.869 112.88C486.869 113.577 487.005 114.131 487.276 114.541C487.555 114.945 487.995 115.146 488.596 115.146C489.19 115.146 489.627 114.945 489.905 114.541C490.184 114.131 490.323 113.577 490.323 112.88C490.323 112.184 490.184 111.637 489.905 111.241C489.627 110.845 489.187 110.647 488.585 110.647C487.984 110.647 487.548 110.845 487.276 111.241C487.005 111.637 486.869 112.184 486.869 112.88ZM495.223 115.949C494.703 115.949 494.237 115.843 493.826 115.63C493.423 115.418 493.104 115.088 492.869 114.64C492.642 114.193 492.528 113.621 492.528 112.924C492.528 112.198 492.649 111.608 492.891 111.153C493.133 110.699 493.46 110.365 493.87 110.152C494.288 109.94 494.761 109.833 495.289 109.833C495.59 109.833 495.88 109.866 496.158 109.932C496.437 109.991 496.664 110.064 496.84 110.152L496.543 110.955C496.367 110.889 496.162 110.827 495.927 110.768C495.693 110.71 495.473 110.68 495.267 110.68C494.109 110.68 493.529 111.425 493.529 112.913C493.529 113.625 493.669 114.171 493.947 114.552C494.233 114.926 494.655 115.113 495.212 115.113C495.535 115.113 495.817 115.08 496.059 115.014C496.309 114.948 496.536 114.868 496.741 114.772V115.63C496.543 115.733 496.323 115.81 496.081 115.861C495.847 115.92 495.561 115.949 495.223 115.949ZM502.214 110.757H500.289V115.839H499.332V110.757H497.429V109.943H502.214V110.757ZM505.608 109.844C506.327 109.844 506.858 110.002 507.203 110.317C507.548 110.633 507.72 111.135 507.72 111.824V115.839H507.016L506.829 115.003H506.785C506.528 115.326 506.257 115.564 505.971 115.718C505.692 115.872 505.304 115.949 504.805 115.949C504.27 115.949 503.826 115.81 503.474 115.531C503.122 115.245 502.946 114.802 502.946 114.2C502.946 113.614 503.177 113.163 503.639 112.847C504.101 112.525 504.812 112.349 505.773 112.319L506.774 112.286V111.934C506.774 111.443 506.668 111.102 506.455 110.911C506.242 110.721 505.942 110.625 505.553 110.625C505.245 110.625 504.952 110.673 504.673 110.768C504.394 110.856 504.134 110.959 503.892 111.076L503.595 110.35C503.852 110.211 504.156 110.094 504.508 109.998C504.86 109.896 505.227 109.844 505.608 109.844ZM506.763 112.957L505.894 112.99C505.161 113.02 504.651 113.137 504.365 113.342C504.086 113.548 503.947 113.837 503.947 114.211C503.947 114.541 504.046 114.783 504.244 114.937C504.449 115.091 504.71 115.168 505.025 115.168C505.524 115.168 505.938 115.033 506.268 114.761C506.598 114.483 506.763 114.057 506.763 113.485V112.957ZM514.282 111.428C514.282 111.795 514.172 112.081 513.952 112.286C513.732 112.492 513.45 112.631 513.105 112.704V112.748C513.472 112.8 513.791 112.932 514.062 113.144C514.333 113.35 514.469 113.672 514.469 114.112C514.469 114.611 514.282 115.025 513.908 115.355C513.541 115.678 512.933 115.839 512.082 115.839H509.541V109.943H512.071C512.489 109.943 512.863 109.991 513.193 110.086C513.53 110.174 513.794 110.328 513.985 110.548C514.183 110.761 514.282 111.054 514.282 111.428ZM513.303 111.549C513.303 111.271 513.2 111.069 512.995 110.944C512.797 110.812 512.471 110.746 512.016 110.746H510.509V112.363H511.84C512.815 112.363 513.303 112.092 513.303 111.549ZM513.468 114.112C513.468 113.775 513.34 113.533 513.083 113.386C512.826 113.24 512.449 113.166 511.95 113.166H510.509V115.058H511.972C512.456 115.058 512.826 114.989 513.083 114.849C513.34 114.703 513.468 114.457 513.468 114.112ZM519.366 109.943H520.422L517.903 112.781L520.631 115.839H519.509L516.847 112.847V115.839H515.879V109.943H516.847V112.803L519.366 109.943ZM523.934 109.844C524.653 109.844 525.185 110.002 525.529 110.317C525.874 110.633 526.046 111.135 526.046 111.824V115.839H525.342L525.155 115.003H525.111C524.855 115.326 524.583 115.564 524.297 115.718C524.019 115.872 523.63 115.949 523.131 115.949C522.596 115.949 522.152 115.81 521.8 115.531C521.448 115.245 521.272 114.802 521.272 114.2C521.272 113.614 521.503 113.163 521.965 112.847C522.427 112.525 523.139 112.349 524.099 112.319L525.1 112.286V111.934C525.1 111.443 524.994 111.102 524.781 110.911C524.569 110.721 524.268 110.625 523.879 110.625C523.571 110.625 523.278 110.673 522.999 110.768C522.721 110.856 522.46 110.959 522.218 111.076L521.921 110.35C522.178 110.211 522.482 110.094 522.834 109.998C523.186 109.896 523.553 109.844 523.934 109.844ZM525.089 112.957L524.22 112.99C523.487 113.02 522.977 113.137 522.691 113.342C522.413 113.548 522.273 113.837 522.273 114.211C522.273 114.541 522.372 114.783 522.57 114.937C522.776 115.091 523.036 115.168 523.351 115.168C523.85 115.168 524.264 115.033 524.594 114.761C524.924 114.483 525.089 114.057 525.089 113.485V112.957Z" fill="#4D5960"/>
<path d="M607.272 108.744C606.429 108.744 605.765 109.027 605.281 109.591C604.797 110.156 604.555 110.93 604.555 111.912C604.555 112.888 604.779 113.661 605.226 114.233C605.681 114.798 606.359 115.08 607.261 115.08C607.606 115.08 607.932 115.051 608.24 114.992C608.548 114.934 608.849 114.86 609.142 114.772V115.63C608.849 115.74 608.544 115.821 608.229 115.872C607.921 115.924 607.551 115.949 607.118 115.949C606.319 115.949 605.651 115.784 605.116 115.454C604.581 115.124 604.177 114.655 603.906 114.046C603.642 113.438 603.51 112.723 603.51 111.901C603.51 111.109 603.653 110.413 603.939 109.811C604.232 109.203 604.661 108.73 605.226 108.392C605.791 108.048 606.476 107.875 607.283 107.875C608.112 107.875 608.834 108.029 609.45 108.337L609.054 109.173C608.812 109.063 608.541 108.964 608.24 108.876C607.947 108.788 607.624 108.744 607.272 108.744ZM610.416 112.297C610.416 111.007 610.611 110.002 610.999 109.283C611.388 108.557 612.015 108.103 612.88 107.919C613.357 107.817 613.823 107.725 614.277 107.644C614.732 107.564 615.157 107.49 615.553 107.424L615.718 108.271C615.462 108.308 615.172 108.356 614.849 108.414C614.527 108.466 614.208 108.521 613.892 108.579C613.577 108.631 613.306 108.682 613.078 108.733C612.602 108.836 612.224 109.085 611.945 109.481C611.667 109.87 611.509 110.479 611.472 111.307H611.538C611.641 111.168 611.78 111.025 611.956 110.878C612.14 110.732 612.356 110.607 612.605 110.504C612.862 110.402 613.152 110.35 613.474 110.35C614.237 110.35 614.813 110.596 615.201 111.087C615.59 111.579 615.784 112.217 615.784 113.001C615.784 113.654 615.671 114.2 615.443 114.64C615.216 115.08 614.901 115.41 614.497 115.63C614.094 115.843 613.625 115.949 613.089 115.949C612.275 115.949 611.626 115.638 611.142 115.014C610.658 114.391 610.416 113.485 610.416 112.297ZM613.166 115.146C613.643 115.146 614.028 114.992 614.321 114.684C614.615 114.376 614.761 113.848 614.761 113.1C614.761 112.499 614.648 112.026 614.42 111.681C614.2 111.329 613.834 111.153 613.32 111.153C612.998 111.153 612.704 111.227 612.44 111.373C612.176 111.513 611.956 111.674 611.78 111.857C611.604 112.041 611.48 112.195 611.406 112.319C611.406 112.679 611.432 113.027 611.483 113.364C611.535 113.702 611.623 114.006 611.747 114.277C611.879 114.541 612.059 114.754 612.286 114.915C612.521 115.069 612.814 115.146 613.166 115.146ZM622.435 112.88C622.435 113.856 622.186 114.611 621.687 115.146C621.196 115.682 620.528 115.949 619.685 115.949C619.164 115.949 618.699 115.832 618.288 115.597C617.885 115.355 617.566 115.007 617.331 114.552C617.096 114.09 616.979 113.533 616.979 112.88C616.979 111.905 617.225 111.153 617.716 110.625C618.207 110.097 618.875 109.833 619.718 109.833C620.253 109.833 620.723 109.954 621.126 110.196C621.537 110.431 621.856 110.776 622.083 111.23C622.318 111.678 622.435 112.228 622.435 112.88ZM617.98 112.88C617.98 113.577 618.116 114.131 618.387 114.541C618.666 114.945 619.106 115.146 619.707 115.146C620.301 115.146 620.737 114.945 621.016 114.541C621.295 114.131 621.434 113.577 621.434 112.88C621.434 112.184 621.295 111.637 621.016 111.241C620.737 110.845 620.297 110.647 619.696 110.647C619.095 110.647 618.658 110.845 618.387 111.241C618.116 111.637 617.98 112.184 617.98 112.88ZM626.774 109.833C627.5 109.833 628.083 110.086 628.523 110.592C628.971 111.098 629.194 111.861 629.194 112.88C629.194 113.885 628.971 114.648 628.523 115.168C628.083 115.689 627.497 115.949 626.763 115.949C626.309 115.949 625.931 115.865 625.63 115.696C625.337 115.52 625.106 115.319 624.937 115.091H624.871C624.886 115.216 624.901 115.374 624.915 115.564C624.93 115.755 624.937 115.92 624.937 116.059V118.479H623.969V109.943H624.761L624.893 110.746H624.937C625.113 110.49 625.344 110.273 625.63 110.097C625.916 109.921 626.298 109.833 626.774 109.833ZM626.598 110.647C625.997 110.647 625.572 110.816 625.322 111.153C625.08 111.491 624.952 112.004 624.937 112.693V112.88C624.937 113.606 625.055 114.167 625.289 114.563C625.531 114.952 625.975 115.146 626.62 115.146C626.98 115.146 627.273 115.047 627.5 114.849C627.735 114.651 627.907 114.384 628.017 114.046C628.135 113.702 628.193 113.309 628.193 112.869C628.193 112.195 628.061 111.656 627.797 111.252C627.541 110.849 627.141 110.647 626.598 110.647ZM634.224 109.943H635.28L632.761 112.781L635.489 115.839H634.367L631.705 112.847V115.839H630.737V109.943H631.705V112.803L634.224 109.943ZM638.792 109.844C639.511 109.844 640.042 110.002 640.387 110.317C640.732 110.633 640.904 111.135 640.904 111.824V115.839H640.2L640.013 115.003H639.969C639.712 115.326 639.441 115.564 639.155 115.718C638.876 115.872 638.488 115.949 637.989 115.949C637.454 115.949 637.01 115.81 636.658 115.531C636.306 115.245 636.13 114.802 636.13 114.2C636.13 113.614 636.361 113.163 636.823 112.847C637.285 112.525 637.996 112.349 638.957 112.319L639.958 112.286V111.934C639.958 111.443 639.852 111.102 639.639 110.911C639.426 110.721 639.126 110.625 638.737 110.625C638.429 110.625 638.136 110.673 637.857 110.768C637.578 110.856 637.318 110.959 637.076 111.076L636.779 110.35C637.036 110.211 637.34 110.094 637.692 109.998C638.044 109.896 638.411 109.844 638.792 109.844ZM639.947 112.957L639.078 112.99C638.345 113.02 637.835 113.137 637.549 113.342C637.27 113.548 637.131 113.837 637.131 114.211C637.131 114.541 637.23 114.783 637.428 114.937C637.633 115.091 637.894 115.168 638.209 115.168C638.708 115.168 639.122 115.033 639.452 114.761C639.782 114.483 639.947 114.057 639.947 113.485V112.957Z" fill="#4D5960"/>
<path d="M729.038 107.875V108.843C729.889 108.858 730.56 108.997 731.051 109.261C731.542 109.525 731.891 109.877 732.096 110.317C732.301 110.75 732.404 111.234 732.404 111.769C732.404 112.121 732.349 112.473 732.239 112.825C732.136 113.17 731.957 113.485 731.7 113.771C731.443 114.05 731.099 114.277 730.666 114.453C730.233 114.629 729.691 114.725 729.038 114.739V115.949H728.059V114.739C727.392 114.725 726.838 114.629 726.398 114.453C725.965 114.27 725.624 114.035 725.375 113.749C725.126 113.456 724.95 113.137 724.847 112.792C724.744 112.448 724.693 112.107 724.693 111.769C724.693 111.249 724.796 110.772 725.001 110.339C725.214 109.899 725.566 109.544 726.057 109.272C726.548 109.001 727.216 108.858 728.059 108.843V107.875H729.038ZM728.059 109.679C727.472 109.694 727.003 109.789 726.651 109.965C726.306 110.141 726.061 110.383 725.914 110.691C725.767 110.992 725.694 111.348 725.694 111.758C725.694 112.404 725.881 112.921 726.255 113.309C726.636 113.691 727.238 113.896 728.059 113.925V109.679ZM729.038 109.679V113.925C729.889 113.896 730.494 113.687 730.853 113.298C731.22 112.902 731.403 112.389 731.403 111.758C731.403 111.34 731.33 110.981 731.183 110.68C731.036 110.372 730.791 110.134 730.446 109.965C730.101 109.789 729.632 109.694 729.038 109.679ZM734.821 109.943V113.54C734.821 113.628 734.817 113.76 734.81 113.936C734.802 114.112 734.791 114.288 734.777 114.464C734.769 114.64 734.762 114.78 734.755 114.882L737.912 109.943H739.1V115.839H738.198V112.363C738.198 112.246 738.198 112.092 738.198 111.901C738.205 111.711 738.212 111.524 738.22 111.34C738.227 111.15 738.234 111.007 738.242 110.911L735.107 115.839H733.908V109.943H734.821ZM741.944 109.943V112.396H745.145V109.943H746.113V115.839H745.145V113.21H741.944V115.839H740.976V109.943H741.944ZM750.213 109.844C750.932 109.844 751.463 110.002 751.808 110.317C752.153 110.633 752.325 111.135 752.325 111.824V115.839H751.621L751.434 115.003H751.39C751.133 115.326 750.862 115.564 750.576 115.718C750.297 115.872 749.909 115.949 749.41 115.949C748.875 115.949 748.431 115.81 748.079 115.531C747.727 115.245 747.551 114.802 747.551 114.2C747.551 113.614 747.782 113.163 748.244 112.847C748.706 112.525 749.417 112.349 750.378 112.319L751.379 112.286V111.934C751.379 111.443 751.273 111.102 751.06 110.911C750.847 110.721 750.547 110.625 750.158 110.625C749.85 110.625 749.557 110.673 749.278 110.768C748.999 110.856 748.739 110.959 748.497 111.076L748.2 110.35C748.457 110.211 748.761 110.094 749.113 109.998C749.465 109.896 749.832 109.844 750.213 109.844ZM751.368 112.957L750.499 112.99C749.766 113.02 749.256 113.137 748.97 113.342C748.691 113.548 748.552 113.837 748.552 114.211C748.552 114.541 748.651 114.783 748.849 114.937C749.054 115.091 749.315 115.168 749.63 115.168C750.129 115.168 750.543 115.033 750.873 114.761C751.203 114.483 751.368 114.057 751.368 113.485V112.957ZM758.634 115.839H757.655V110.746H755.917C755.822 111.986 755.69 112.987 755.521 113.749C755.352 114.505 755.129 115.055 754.85 115.399C754.571 115.744 754.219 115.916 753.794 115.916C753.699 115.916 753.603 115.909 753.508 115.894C753.42 115.887 753.347 115.869 753.288 115.839V115.113C753.332 115.128 753.38 115.139 753.431 115.146C753.482 115.154 753.534 115.157 753.585 115.157C753.981 115.157 754.296 114.736 754.531 113.892C754.773 113.049 754.956 111.733 755.081 109.943H758.634V115.839Z" fill="#4D5960"/>
<defs>
<clipPath id="clip0">
<rect width="48.2976" height="48.2976" fill="white" transform="translate(119.778 38.6377)"/>
</clipPath>
<clipPath id="clip1">
<rect width="48.2976" height="48.2976" fill="white" transform="translate(239.556 38.6377)"/>
</clipPath>
<clipPath id="clip2">
<rect width="48.2976" height="48.2976" fill="white" transform="translate(358.851 38.6377)"/>
</clipPath>
<clipPath id="clip3">
<rect width="48.2976" height="48.2976" fill="white" transform="translate(478.146 39.6377)"/>
</clipPath>
<clipPath id="clip4">
<rect width="48.2976" height="48.2976" fill="white" transform="translate(597.924 38.6377)"/>
</clipPath>
<clipPath id="clip5">
<rect width="48.2976" height="48.2976" fill="white" transform="translate(717.703 38.6377)"/>
</clipPath>
<clipPath id="clip6">
<rect width="48.2976" height="48.2976" fill="white" transform="translate(0 38.6377)"/>
</clipPath>
</defs>
</svg>
