<svg width="15" height="15" viewBox="0 0 15 15" fill="none" xmlns="http://www.w3.org/2000/svg">
<g clip-path="url(#clip0)">
<path d="M14.7674 1.49002C14.5842 1.26595 14.3098 1.14258 13.9946 1.14258C13.8233 1.14258 13.6418 1.17863 13.4552 1.24992L0.758019 6.09684C0.084191 6.35399 -0.00656062 6.73988 -0.000724138 6.94702C0.00511234 7.15416 0.117608 7.53433 0.80494 7.75303C0.80906 7.75429 0.81318 7.75555 0.8173 7.75669L3.45104 8.5104L4.87537 12.5834C5.06958 13.1386 5.50549 13.4835 6.01315 13.4835C6.33324 13.4835 6.64806 13.3494 6.92364 13.0958L8.5527 11.5958L10.9156 13.4984C10.9158 13.4986 10.9161 13.4988 10.9164 13.499L10.9388 13.5171C10.9409 13.5187 10.943 13.5204 10.9451 13.522C11.2077 13.7257 11.4944 13.8333 11.7744 13.8334H11.7746C12.3217 13.8334 12.7574 13.4284 12.8843 12.8017L14.9647 2.52903C15.0483 2.1167 14.9782 1.74774 14.7674 1.49002ZM4.33212 8.36723L9.41341 5.77137L6.24947 9.1333C6.19763 9.18835 6.16089 9.25575 6.14281 9.32911L5.53272 11.8003L4.33212 8.36723ZM6.3282 12.4492C6.30715 12.4686 6.28597 12.4858 6.2648 12.5018L6.83083 10.2093L7.86045 11.0384L6.3282 12.4492ZM14.1033 2.35451L12.0229 12.6273C12.0029 12.7256 11.9389 12.9544 11.7744 12.9544C11.6932 12.9544 11.5911 12.9101 11.4866 12.8296L8.80917 10.6738C8.80882 10.6734 8.80836 10.6731 8.80791 10.6729L7.21478 9.38999L11.7902 4.5282C11.9367 4.37256 11.95 4.13418 11.8217 3.9632C11.6933 3.79223 11.4606 3.73844 11.2703 3.83572L3.74493 7.68024L1.07536 6.91647L13.7687 2.07104C13.8759 2.03007 13.9508 2.02148 13.9946 2.02148C14.0215 2.02148 14.0693 2.02469 14.0871 2.04655C14.1104 2.07504 14.1402 2.1722 14.1033 2.35451Z" fill="white"/>
</g>
<defs>
<clipPath id="clip0">
<rect width="15" height="15" fill="white"/>
</clipPath>
</defs>
</svg>
