<svg width="15" height="15" viewBox="0 0 15 15" fill="none" xmlns="http://www.w3.org/2000/svg">
<g clip-path="url(#clip0)">
<path d="M14.4718 8.68308C14.9193 4.9162 14.2568 2.53808 13.0618 1.46245L13.0624 1.46183C11.1337 -0.375046 4.61993 -0.646921 2.31243 1.54433C1.27618 2.6162 0.911178 4.18933 0.871178 6.13683C0.831178 8.08495 0.783678 11.7343 4.1843 12.7243H4.18743L4.1843 14.2362C4.1843 14.2362 4.16118 14.8487 4.55243 14.9718C4.99993 15.1168 5.20243 14.8325 6.5943 13.17C8.9218 13.3718 10.7093 12.9093 10.9124 12.8418C11.3824 12.6843 14.0418 12.3325 14.4718 8.68308ZM6.82368 12.1062C6.82368 12.1062 5.35055 13.9431 4.89243 14.42C4.74243 14.575 4.57805 14.5606 4.58055 14.2531C4.58055 14.0512 4.5918 11.7431 4.5918 11.7431C1.70868 10.9168 1.87868 7.80933 1.90993 6.1837C1.94118 4.55745 2.23868 3.22558 3.11618 2.3287C5.14055 0.430579 10.8512 0.854954 12.3062 2.22245C14.0849 3.79933 13.4518 8.25433 13.4556 8.4062C13.0899 11.4525 10.9349 11.6456 10.5387 11.7775C10.3693 11.8337 8.79743 12.2381 6.82368 12.1062Z" fill="white"/>
<path d="M7.63848 2.68555C7.39785 2.68555 7.39785 3.06055 7.63848 3.06367C9.50535 3.07805 11.0429 4.3793 11.0597 6.76617C11.0597 7.01805 11.4285 7.01492 11.4254 6.76305H11.4247C11.4047 4.19117 9.72598 2.69992 7.63848 2.68555Z" fill="white"/>
<path d="M10.0941 6.37064C10.0885 6.61939 10.4566 6.63127 10.4597 6.37939C10.4904 4.96127 9.61598 3.79315 7.97284 3.67002C7.73222 3.65252 7.70722 4.03065 7.94722 4.04815C9.37222 4.15627 10.1229 5.12877 10.0941 6.37064Z" fill="white"/>
<path d="M9.70087 7.98357C9.39212 7.80482 9.07775 7.91607 8.94775 8.0917L8.67587 8.44357C8.53775 8.62232 8.27962 8.59857 8.27962 8.59857C6.39588 8.10045 5.89213 6.1292 5.89213 6.1292C5.89213 6.1292 5.869 5.86232 6.0415 5.7192L6.3815 5.43795C6.5515 5.30295 6.659 4.97795 6.48588 4.65857C6.02338 3.82295 5.71275 3.53482 5.55463 3.31357C5.38838 3.10545 5.13838 3.05857 4.87838 3.1992H4.87275C4.33213 3.51545 3.74026 4.10732 3.92963 4.7167C4.25276 5.3592 4.8465 7.40732 6.739 8.95482C7.62837 9.6867 9.03587 10.4367 9.63337 10.6098L9.639 10.6186C10.2277 10.8148 10.8002 10.1998 11.1059 9.64295V9.63857C11.2415 9.3692 11.1965 9.1142 10.9984 8.94732C10.6471 8.60482 10.1171 8.2267 9.70087 7.98357Z" fill="white"/>
<path d="M8.23035 5.06505C8.83098 5.10005 9.12223 5.4138 9.15348 6.05817C9.16473 6.31005 9.53036 6.29255 9.51911 6.04067C9.47911 5.19942 9.04036 4.73067 8.25035 4.68692C8.00972 4.67255 7.98722 5.05067 8.23035 5.06505Z" fill="white"/>
</g>
<defs>
<clipPath id="clip0">
<rect width="15" height="15" fill="white"/>
</clipPath>
</defs>
</svg>
